<svg xmlns="http://www.w3.org/2000/svg" viewBox="-35 -5 305 165">

  <g transform="translate(115, 100)">

    <!-- Left cables -->
    <line x1="-100" y1="-90" x2="-145" y2="-30" stroke="#C03030" stroke-width="1.2"/>
    <line x1="-100" y1="-90" x2="-145" y2="0" stroke="#C03030" stroke-width="1.2"/>
    <line x1="-100" y1="-90" x2="-145" y2="30" stroke="#C03030" stroke-width="1.2"/>

    <!-- Right cables -->
    <line x1="100" y1="-90" x2="145" y2="-30" stroke="#4A90C4" stroke-width="1.2"/>
    <line x1="100" y1="-90" x2="145" y2="0" stroke="#4A90C4" stroke-width="1.2"/>
    <line x1="100" y1="-90" x2="145" y2="30" stroke="#4A90C4" stroke-width="1.2"/>

    <!-- Left tower — Rojo -->
    <rect x="-106" y="-96" width="14" height="8" rx="2" fill="#C03030"/>
    <rect x="-104" y="-88" width="10" height="120" rx="2" fill="#C03030"/>

    <!-- Right tower — Celeste -->
    <rect x="92" y="-96" width="14" height="8" rx="2" fill="#4A90C4"/>
    <rect x="94" y="-88" width="10" height="120" rx="2" fill="#4A90C4"/>

    <!-- Trend line — Dorado -->
    <path d="M-99 -88 Q-80 -35, -68 -10 L-38 10 L-10 16 L18 12 L48 -8 L72 -40 L99 -88"
          fill="none" stroke="#D4A017" stroke-width="3" stroke-linecap="round" stroke-linejoin="round"/>

    <!-- Data points -->
    <circle cx="-68" cy="-10" r="4" fill="#D4A017"/>
    <circle cx="-38" cy="10" r="3.5" fill="#D4A017"/>
    <circle cx="-10" cy="16" r="4.5" fill="#D4A017" stroke="#FFF8E1" stroke-width="2"/>
    <circle cx="18" cy="12" r="3.5" fill="#D4A017"/>
    <circle cx="48" cy="-8" r="4" fill="#D4A017"/>
    <circle cx="72" cy="-40" r="4" fill="#D4A017"/>

    <!-- Upward arrow -->
    <!-- <path d="M94 -82 L101 -95 L108 -82" fill="none" stroke="#D4A017" stroke-width="2.5" stroke-linecap="round" stroke-linejoin="round"/> -->

    <!-- Punto de giro -->
    <line x1="-10" y1="16" x2="-10" y2="42" stroke="#D4A017" stroke-width="1" stroke-dasharray="2 3"/>
    <circle cx="-10" cy="46" r="4" fill="#D4A017"/>

  </g>

</svg>
